<mxfile host="app.diagrams.net" modified="2020-09-20T03:21:22.265Z" agent="5.0 (Macintosh; Intel Mac OS X 10_14_6) AppleWebKit/537.36 (KHTML, like Gecko) Chrome/85.0.4183.83 Safari/537.36" etag="CQOyTxMxGntCgnOYiuG7" version="13.7.3" type="github">
  <diagram id="sBlKYHkHXiTFA0Ll7E5o" name="Page-1">
    <mxGraphModel dx="977" dy="606" grid="0" gridSize="10" guides="1" tooltips="1" connect="1" arrows="1" fold="1" page="1" pageScale="1" pageWidth="827" pageHeight="1169" math="0" shadow="0">
      <root>
        <mxCell id="0" />
        <mxCell id="1" parent="0" />
        <mxCell id="4RnhHxQTcm20Ra0JiDWr-1" value="" style="rounded=0;whiteSpace=wrap;html=1;dashed=1;" parent="1" vertex="1">
          <mxGeometry x="151" y="183" width="772" height="180" as="geometry" />
        </mxCell>
        <mxCell id="l24l7IfbjVIZF7O3o2gP-27" value="Transaction Manager" style="rounded=0;whiteSpace=wrap;html=1;" vertex="1" parent="1">
          <mxGeometry x="185" y="312" width="528" height="38" as="geometry" />
        </mxCell>
        <mxCell id="h5bv8y5jZey22ACNWMLN-1" value="" style="rounded=0;whiteSpace=wrap;html=1;dashed=1;" parent="1" vertex="1">
          <mxGeometry x="149.5" y="395" width="772.5" height="233" as="geometry" />
        </mxCell>
        <mxCell id="4RnhHxQTcm20Ra0JiDWr-3" value="业务领域模型" style="text;html=1;strokeColor=none;fillColor=none;align=center;verticalAlign=middle;whiteSpace=wrap;rounded=0;" parent="1" vertex="1">
          <mxGeometry x="445.5" y="190" width="156" height="20" as="geometry" />
        </mxCell>
        <mxCell id="l24l7IfbjVIZF7O3o2gP-23" style="edgeStyle=none;rounded=0;orthogonalLoop=1;jettySize=auto;html=1;exitX=0.5;exitY=1;exitDx=0;exitDy=0;entryX=0.5;entryY=0;entryDx=0;entryDy=0;" edge="1" parent="1" source="4RnhHxQTcm20Ra0JiDWr-4" target="4RnhHxQTcm20Ra0JiDWr-14">
          <mxGeometry relative="1" as="geometry" />
        </mxCell>
        <mxCell id="l24l7IfbjVIZF7O3o2gP-24" style="edgeStyle=none;rounded=0;orthogonalLoop=1;jettySize=auto;html=1;exitX=0.5;exitY=1;exitDx=0;exitDy=0;" edge="1" parent="1" source="4RnhHxQTcm20Ra0JiDWr-4" target="4RnhHxQTcm20Ra0JiDWr-15">
          <mxGeometry relative="1" as="geometry" />
        </mxCell>
        <mxCell id="l24l7IfbjVIZF7O3o2gP-25" style="edgeStyle=none;rounded=0;orthogonalLoop=1;jettySize=auto;html=1;exitX=0.5;exitY=1;exitDx=0;exitDy=0;entryX=0.5;entryY=0;entryDx=0;entryDy=0;" edge="1" parent="1" source="4RnhHxQTcm20Ra0JiDWr-4" target="4RnhHxQTcm20Ra0JiDWr-16">
          <mxGeometry relative="1" as="geometry" />
        </mxCell>
        <mxCell id="l24l7IfbjVIZF7O3o2gP-26" style="edgeStyle=none;rounded=0;orthogonalLoop=1;jettySize=auto;html=1;exitX=0.5;exitY=1;exitDx=0;exitDy=0;entryX=0.5;entryY=0;entryDx=0;entryDy=0;" edge="1" parent="1" source="4RnhHxQTcm20Ra0JiDWr-4" target="4RnhHxQTcm20Ra0JiDWr-20">
          <mxGeometry relative="1" as="geometry" />
        </mxCell>
        <mxCell id="4RnhHxQTcm20Ra0JiDWr-4" value="" style="rounded=1;whiteSpace=wrap;html=1;" parent="1" vertex="1">
          <mxGeometry x="180" y="222" width="522" height="68" as="geometry" />
        </mxCell>
        <mxCell id="4RnhHxQTcm20Ra0JiDWr-5" value="" style="rounded=1;whiteSpace=wrap;html=1;" parent="1" vertex="1">
          <mxGeometry x="330" y="230" width="120" height="48" as="geometry" />
        </mxCell>
        <mxCell id="4RnhHxQTcm20Ra0JiDWr-6" value="" style="rounded=1;whiteSpace=wrap;html=1;" parent="1" vertex="1">
          <mxGeometry x="480" y="230" width="120" height="50" as="geometry" />
        </mxCell>
        <mxCell id="4RnhHxQTcm20Ra0JiDWr-7" value="主实体" style="text;html=1;strokeColor=none;fillColor=none;align=center;verticalAlign=middle;whiteSpace=wrap;rounded=0;" parent="1" vertex="1">
          <mxGeometry x="197" y="246" width="96" height="20" as="geometry" />
        </mxCell>
        <mxCell id="4RnhHxQTcm20Ra0JiDWr-8" value="子实体:定向" style="text;html=1;strokeColor=none;fillColor=none;align=center;verticalAlign=middle;whiteSpace=wrap;rounded=0;" parent="1" vertex="1">
          <mxGeometry x="342" y="244" width="96" height="20" as="geometry" />
        </mxCell>
        <mxCell id="4RnhHxQTcm20Ra0JiDWr-10" value="子实体:XX" style="text;html=1;strokeColor=none;fillColor=none;align=center;verticalAlign=middle;whiteSpace=wrap;rounded=0;" parent="1" vertex="1">
          <mxGeometry x="494" y="242" width="96" height="20" as="geometry" />
        </mxCell>
        <mxCell id="4RnhHxQTcm20Ra0JiDWr-11" value="..." style="rounded=1;whiteSpace=wrap;html=1;" parent="1" vertex="1">
          <mxGeometry x="630" y="230" width="60" height="49" as="geometry" />
        </mxCell>
        <mxCell id="4RnhHxQTcm20Ra0JiDWr-13" value="数据存储模型" style="text;html=1;strokeColor=none;fillColor=none;align=center;verticalAlign=middle;whiteSpace=wrap;rounded=0;" parent="1" vertex="1">
          <mxGeometry x="824" y="395" width="91" height="20" as="geometry" />
        </mxCell>
        <mxCell id="l24l7IfbjVIZF7O3o2gP-21" style="rounded=0;orthogonalLoop=1;jettySize=auto;html=1;exitX=0.5;exitY=1;exitDx=0;exitDy=0;entryX=0.606;entryY=0;entryDx=0;entryDy=0;entryPerimeter=0;" edge="1" parent="1" source="4RnhHxQTcm20Ra0JiDWr-20" target="4RnhHxQTcm20Ra0JiDWr-57">
          <mxGeometry relative="1" as="geometry" />
        </mxCell>
        <mxCell id="4RnhHxQTcm20Ra0JiDWr-20" value="..." style="rounded=1;whiteSpace=wrap;html=1;" parent="1" vertex="1">
          <mxGeometry x="798" y="426" width="60" height="60" as="geometry" />
        </mxCell>
        <mxCell id="4RnhHxQTcm20Ra0JiDWr-25" value="" style="group" parent="1" vertex="1" connectable="0">
          <mxGeometry x="180" y="426" width="120" height="60" as="geometry" />
        </mxCell>
        <mxCell id="4RnhHxQTcm20Ra0JiDWr-14" value="" style="rounded=1;whiteSpace=wrap;html=1;" parent="4RnhHxQTcm20Ra0JiDWr-25" vertex="1">
          <mxGeometry width="120" height="60" as="geometry" />
        </mxCell>
        <mxCell id="4RnhHxQTcm20Ra0JiDWr-17" value="主Segment" style="text;html=1;strokeColor=none;fillColor=none;align=center;verticalAlign=middle;whiteSpace=wrap;rounded=0;" parent="4RnhHxQTcm20Ra0JiDWr-25" vertex="1">
          <mxGeometry x="12" y="20" width="96" height="20" as="geometry" />
        </mxCell>
        <mxCell id="4RnhHxQTcm20Ra0JiDWr-26" value="" style="group" parent="1" vertex="1" connectable="0">
          <mxGeometry x="381" y="426" width="120" height="60" as="geometry" />
        </mxCell>
        <mxCell id="4RnhHxQTcm20Ra0JiDWr-15" value="" style="rounded=1;whiteSpace=wrap;html=1;" parent="4RnhHxQTcm20Ra0JiDWr-26" vertex="1">
          <mxGeometry width="120" height="60" as="geometry" />
        </mxCell>
        <mxCell id="4RnhHxQTcm20Ra0JiDWr-18" value="Segment" style="text;html=1;strokeColor=none;fillColor=none;align=center;verticalAlign=middle;whiteSpace=wrap;rounded=0;" parent="4RnhHxQTcm20Ra0JiDWr-26" vertex="1">
          <mxGeometry x="12" y="20" width="96" height="20" as="geometry" />
        </mxCell>
        <mxCell id="4RnhHxQTcm20Ra0JiDWr-27" value="" style="group" parent="1" vertex="1" connectable="0">
          <mxGeometry x="596.5" y="428" width="120" height="60" as="geometry" />
        </mxCell>
        <mxCell id="4RnhHxQTcm20Ra0JiDWr-16" value="" style="rounded=1;whiteSpace=wrap;html=1;" parent="4RnhHxQTcm20Ra0JiDWr-27" vertex="1">
          <mxGeometry width="120" height="60" as="geometry" />
        </mxCell>
        <mxCell id="4RnhHxQTcm20Ra0JiDWr-19" value="Segment" style="text;html=1;strokeColor=none;fillColor=none;align=center;verticalAlign=middle;whiteSpace=wrap;rounded=0;" parent="4RnhHxQTcm20Ra0JiDWr-27" vertex="1">
          <mxGeometry x="12" y="20" width="96" height="20" as="geometry" />
        </mxCell>
        <mxCell id="l24l7IfbjVIZF7O3o2gP-30" style="edgeStyle=none;rounded=0;orthogonalLoop=1;jettySize=auto;html=1;exitX=1;exitY=0.25;exitDx=0;exitDy=0;" edge="1" parent="1" source="4RnhHxQTcm20Ra0JiDWr-39">
          <mxGeometry relative="1" as="geometry">
            <mxPoint x="148.83333333333348" y="294.83333333333337" as="targetPoint" />
          </mxGeometry>
        </mxCell>
        <mxCell id="l24l7IfbjVIZF7O3o2gP-31" style="edgeStyle=none;rounded=0;orthogonalLoop=1;jettySize=auto;html=1;exitX=1;exitY=0.75;exitDx=0;exitDy=0;" edge="1" parent="1" source="4RnhHxQTcm20Ra0JiDWr-39">
          <mxGeometry relative="1" as="geometry">
            <mxPoint x="144.66666666666674" y="518.1666666666667" as="targetPoint" />
          </mxGeometry>
        </mxCell>
        <mxCell id="4RnhHxQTcm20Ra0JiDWr-39" value="" style="rounded=0;whiteSpace=wrap;html=1;" parent="1" vertex="1">
          <mxGeometry x="10" y="183" width="110" height="447" as="geometry" />
        </mxCell>
        <mxCell id="4RnhHxQTcm20Ra0JiDWr-83" value="&lt;span style=&quot;color: rgb(0 , 0 , 0) ; font-family: &amp;#34;helvetica&amp;#34; ; font-size: 12px ; font-style: normal ; font-weight: 400 ; letter-spacing: normal ; text-indent: 0px ; text-transform: none ; word-spacing: 0px ; background-color: rgb(248 , 249 , 250) ; display: inline ; float: none&quot;&gt;Meta 信息&lt;/span&gt;" style="text;whiteSpace=wrap;html=1;align=center;" parent="1" vertex="1">
          <mxGeometry x="20" y="216" width="83" height="54" as="geometry" />
        </mxCell>
        <mxCell id="4RnhHxQTcm20Ra0JiDWr-87" style="edgeStyle=orthogonalEdgeStyle;rounded=0;orthogonalLoop=1;jettySize=auto;html=1;exitX=0.5;exitY=1;exitDx=0;exitDy=0;entryX=0.5;entryY=0;entryDx=0;entryDy=0;startArrow=none;startFill=0;" parent="1" source="4RnhHxQTcm20Ra0JiDWr-84" target="4RnhHxQTcm20Ra0JiDWr-85" edge="1">
          <mxGeometry relative="1" as="geometry" />
        </mxCell>
        <mxCell id="4RnhHxQTcm20Ra0JiDWr-84" value="领域模型" style="rounded=1;whiteSpace=wrap;html=1;align=center;" parent="1" vertex="1">
          <mxGeometry x="30.5" y="309" width="59" height="34" as="geometry" />
        </mxCell>
        <mxCell id="4RnhHxQTcm20Ra0JiDWr-85" value="映射" style="rhombus;whiteSpace=wrap;html=1;align=center;" parent="1" vertex="1">
          <mxGeometry x="21.5" y="379.5" width="80" height="33" as="geometry" />
        </mxCell>
        <mxCell id="4RnhHxQTcm20Ra0JiDWr-88" style="edgeStyle=orthogonalEdgeStyle;rounded=0;orthogonalLoop=1;jettySize=auto;html=1;exitX=0.5;exitY=0;exitDx=0;exitDy=0;startArrow=none;startFill=0;" parent="1" source="4RnhHxQTcm20Ra0JiDWr-86" target="4RnhHxQTcm20Ra0JiDWr-85" edge="1">
          <mxGeometry relative="1" as="geometry" />
        </mxCell>
        <mxCell id="4RnhHxQTcm20Ra0JiDWr-86" value="Segment" style="rounded=1;whiteSpace=wrap;html=1;align=center;" parent="1" vertex="1">
          <mxGeometry x="32" y="442.5" width="59" height="34" as="geometry" />
        </mxCell>
        <mxCell id="4RnhHxQTcm20Ra0JiDWr-89" value="Segment&lt;br&gt;Route" style="rounded=1;whiteSpace=wrap;html=1;align=center;" parent="1" vertex="1">
          <mxGeometry x="30.5" y="507" width="59" height="34" as="geometry" />
        </mxCell>
        <mxCell id="4RnhHxQTcm20Ra0JiDWr-105" value="&lt;span&gt;数据泵&lt;br&gt;(领域模型自定义binlog)&lt;br&gt;&lt;/span&gt;" style="rounded=0;whiteSpace=wrap;html=1;" parent="1" vertex="1">
          <mxGeometry x="764" y="219" width="117" height="133.5" as="geometry" />
        </mxCell>
        <mxCell id="l24l7IfbjVIZF7O3o2gP-17" style="rounded=0;orthogonalLoop=1;jettySize=auto;html=1;exitX=0.5;exitY=1;exitDx=0;exitDy=0;entryX=0.5;entryY=0;entryDx=0;entryDy=0;entryPerimeter=0;" edge="1" parent="1" source="4RnhHxQTcm20Ra0JiDWr-14" target="4RnhHxQTcm20Ra0JiDWr-48">
          <mxGeometry relative="1" as="geometry" />
        </mxCell>
        <mxCell id="l24l7IfbjVIZF7O3o2gP-18" style="rounded=0;orthogonalLoop=1;jettySize=auto;html=1;exitX=0.5;exitY=1;exitDx=0;exitDy=0;entryX=0.5;entryY=0;entryDx=0;entryDy=0;entryPerimeter=0;" edge="1" parent="1" source="4RnhHxQTcm20Ra0JiDWr-15" target="4RnhHxQTcm20Ra0JiDWr-55">
          <mxGeometry relative="1" as="geometry" />
        </mxCell>
        <mxCell id="l24l7IfbjVIZF7O3o2gP-19" style="rounded=0;orthogonalLoop=1;jettySize=auto;html=1;exitX=0.5;exitY=1;exitDx=0;exitDy=0;entryX=0.5;entryY=0;entryDx=0;entryDy=0;entryPerimeter=0;" edge="1" parent="1" source="4RnhHxQTcm20Ra0JiDWr-16" target="4RnhHxQTcm20Ra0JiDWr-57">
          <mxGeometry relative="1" as="geometry" />
        </mxCell>
        <mxCell id="4RnhHxQTcm20Ra0JiDWr-48" value="" style="shape=cylinder3;whiteSpace=wrap;html=1;boundedLbl=1;backgroundOutline=1;size=15;" parent="1" vertex="1">
          <mxGeometry x="214" y="522" width="140" height="80" as="geometry" />
        </mxCell>
        <mxCell id="4RnhHxQTcm20Ra0JiDWr-54" value="ad_galaxy库" style="text;html=1;strokeColor=none;fillColor=none;align=center;verticalAlign=middle;whiteSpace=wrap;rounded=0;" parent="1" vertex="1">
          <mxGeometry x="234" y="563" width="120" height="20" as="geometry" />
        </mxCell>
        <mxCell id="l24l7IfbjVIZF7O3o2gP-13" value="" style="group" vertex="1" connectable="0" parent="1">
          <mxGeometry x="708" y="521" width="140" height="80" as="geometry" />
        </mxCell>
        <mxCell id="4RnhHxQTcm20Ra0JiDWr-57" value="" style="shape=cylinder3;whiteSpace=wrap;html=1;boundedLbl=1;backgroundOutline=1;size=15;" parent="l24l7IfbjVIZF7O3o2gP-13" vertex="1">
          <mxGeometry width="140" height="80" as="geometry" />
        </mxCell>
        <mxCell id="4RnhHxQTcm20Ra0JiDWr-58" value="ad_data_source库" style="text;html=1;strokeColor=none;fillColor=none;align=center;verticalAlign=middle;whiteSpace=wrap;rounded=0;" parent="l24l7IfbjVIZF7O3o2gP-13" vertex="1">
          <mxGeometry x="7" y="41" width="120" height="21" as="geometry" />
        </mxCell>
        <mxCell id="l24l7IfbjVIZF7O3o2gP-14" value="" style="group" vertex="1" connectable="0" parent="1">
          <mxGeometry x="477" y="522" width="140" height="80" as="geometry" />
        </mxCell>
        <mxCell id="4RnhHxQTcm20Ra0JiDWr-55" value="" style="shape=cylinder3;whiteSpace=wrap;html=1;boundedLbl=1;backgroundOutline=1;size=15;" parent="l24l7IfbjVIZF7O3o2gP-14" vertex="1">
          <mxGeometry width="140" height="80" as="geometry" />
        </mxCell>
        <mxCell id="4RnhHxQTcm20Ra0JiDWr-56" value="ad_data_core库" style="text;html=1;strokeColor=none;fillColor=none;align=center;verticalAlign=middle;whiteSpace=wrap;rounded=0;" parent="l24l7IfbjVIZF7O3o2gP-14" vertex="1">
          <mxGeometry x="11" y="40" width="120" height="20" as="geometry" />
        </mxCell>
        <mxCell id="l24l7IfbjVIZF7O3o2gP-22" style="rounded=0;orthogonalLoop=1;jettySize=auto;html=1;exitX=0.5;exitY=1;exitDx=0;exitDy=0;entryX=0.682;entryY=0.019;entryDx=0;entryDy=0;entryPerimeter=0;" edge="1" parent="1" source="4RnhHxQTcm20Ra0JiDWr-15" target="4RnhHxQTcm20Ra0JiDWr-48">
          <mxGeometry relative="1" as="geometry" />
        </mxCell>
      </root>
    </mxGraphModel>
  </diagram>
</mxfile>
